<svg width="112" height="98" xmlns="http://www.w3.org/2000/svg">
 <g>
  <title>background</title>
  <rect x="-1" y="-1" width="27.747126" height="24.528735" id="canvas_background" fill="none"/>
 </g>

 <g>
  <title>Layer 1</title>
  <g opacity="0.25" fill="none" stroke="#000" stroke-miterlimit="10" id="svg_1">
   <path d="m70.022183,71.182971l-64.5,0l0,-64l89,0l0,22.5" id="svg_2"/>
   <path stroke-width="2" d="m70.855183,75.682971l-66.79,0c-1.13,0 -2.043,-0.99 -2.043,-2.212l0,-68.576c0,-1.222 0.914,-2.212 2.043,-2.212l91.915,0c1.128,0 2.043,0.99 2.043,2.212l0,25.87m-59.001,44.918l21,0l0,13l-21,0l0,-13z" id="svg_3"/>
   <path stroke-width="2" stroke-linecap="round" d="m29.022183,88.682971l41,0" id="svg_4"/>
   <path d="m71.022183,71.182971l-53.5,0l0,-64l65,0l0,23.5" id="svg_5"/>
   <circle cx="22.022183" cy="10.682971" r="1" id="svg_6"/>
   <circle cx="26.022183" cy="10.682971" r="1" id="svg_7"/>
   <circle cx="30.022183" cy="10.682971" r="1" id="svg_8"/>
   <path d="m18.022183,14.182971l64,0m-64,27l52.917,0.083m-25.417,17.917l-20,0c-0.552,0 -1,-0.448 -1,-1l0,-10c0,-0.552 0.448,-1 1,-1l20,0c0.552,0 1,0.448 1,1l0,10c0,0.552 -0.448,1 -1,1zm25.5,0.03l-16.5,-0.03c-0.552,0 -1,-0.448 -1,-1l0,-10c0,-0.552 0.448,-1 1,-1l16.47,-0.03" id="svg_9"/>
   <path stroke-linecap="round" d="m25.022183,62.182971l15,0m14,0l11,0m3,0l3,0" id="svg_10"/>
   <path d="m42.022183,35.182971l16,0m-4,-15.326l-5.85,4.326l4.275,0l-5.06,4.248" id="svg_11"/>
   <g id="svg_12">
    <path stroke-width="2" d="m107.969183,95.682971l-34.894,0c-1.134,0 -2.053,-0.924 -2.053,-2.063l0,-60.874c0,-1.14 0.92,-2.063 2.053,-2.063l34.895,0c1.134,0 2.053,0.924 2.053,2.063l0,60.873c0,1.14 -0.92,2.064 -2.053,2.064l-0.001,0z" id="svg_13"/>
    <path d="m74.522183,37.182971l32,0l0,53l-32,0l0,-53zm12.5,-3l7,0m-19,30l31,0m-23,-9l15,0" id="svg_14"/>
    <path d="m93.022183,43.589971l-3.37,2.593l2.463,0l-2.917,2.398m11.324,33.602l-20,0c-0.552,0 -1,-0.448 -1,-1l0,-10c0,-0.552 0.448,-1 1,-1l20,0c0.552,0 1,0.448 1,1l0,10c0,0.552 -0.448,1 -1,1z" id="svg_15"/>
    <path stroke-linecap="round" d="m80.022183,85.182971l15,0" id="svg_16"/>
   </g>
  </g>
 </g>
</svg>